<svg xmlns="http://www.w3.org/2000/svg" xmlns:xlink="http://www.w3.org/1999/xlink" preserveAspectRatio="xMidYMid meet" version="1.0" viewBox="4.9 16.1 490.5 40.9" zoomAndPan="magnify" style="fill: rgb(0, 0, 0);" original_string_length="3120" width="322.0496115883599px" height="26.93505842375373px"><g><g id="__id0_sso1ybkmj"><path d="M482.78,40.657c-11.095-8.176-21.163,5.574-30.654-1.566-10.258-8.151-20.953,4.485-31.762,1.784-6.474-1.743-11.426-4.491-18.309-2.931-30.576,11.7-21.2.252-45.444-1.979-7.313.752-14.01,6.572-21.43,5.736-4.229-.476-8.036-3.474-11.83-5.238-15.438-8.075-30.922,4.463-46.017,6.667-30.743-10-22.706-12.6-56.311-.82-16.3,6.7-29.022-12.273-45.595-7.718-20.723,5.932-26.3,8.974-46.416-2.264C111.1,24.319,93.3,35.216,75.941,39.1c-10.317,1.77-19.157-3.4-29.147-4.617-5.317-2.279-29.769,7.484-21.641,9.13,8.371-3.531,14.754-6.628,24.067-4.153C81.857,54.676,92.1,34.063,121.5,36.43c7.9,1.445,14.463,6.7,22.437,7.924,14.858,2.572,28.447-9.235,43.206-5.869,7.831,2.05,13.939,8.155,22,9.7,15.646,2.708,30.73-11.149,46.265-6.4,19.061,10.949,23.224,11.14,43.022,1.087C320,32.482,325.545,49.52,342.361,45.777c8.121-2.653,14.843-7.989,23.6-3.893,22.653,14.418,25.521-.678,45.137.819,20.292,8.038,17.147-.3,32.8-.534,4,.955,6.748,3.815,10.452,5.3,8.623,3.448,16.592-5.94,24.877-.737C483.077,49.143,486.592,43.077,482.78,40.657Z" style="fill: rgb(35, 31, 32);"/></g><g id="__id1_sso1ybkmj"><path d="M197.455,52.2c4.893-4.344,11.292-34.418-2.133-31.358-4.165,1.791-5.169,6.788-7.641,9.837-2.276.884-4.637-1.722-7.095-1.7C166.136,30.1,190.07,55.238,197.455,52.2Z" style="fill: rgb(185, 38, 87);"/></g><g id="__id2_sso1ybkmj"><path d="M398.59,53.834c8.151.066,18.075-31.547,4.4-27.29-2.246.88-3.166,4.113-5.652,4.141-3.687-1.872-6.957-6.052-11.591-6.161C372.088,26.643,392.091,51.669,398.59,53.834Z" style="fill: rgb(185, 38, 87);"/></g><g id="__id3_sso1ybkmj"><path d="M22.841,47.975a26.933,26.933,0,0,0,9.091,1.915c4.494-.01,3.637-4.028,3.438-6.985a40.955,40.955,0,0,0-3.595-13.886c-1.1-2.474-3.508-9.227-7.626-8.8-2.878.3-3.923,3.042-4.409,5.37-.1.471-.174.926-.236,1.34-.3,1.989-.807,6-4.065,3.872-2.6-1.695-6.766-2.437-8.786.352-1.749,3.893,1.818,7.373,4.721,9.921A37.572,37.572,0,0,0,22.841,47.975Z" style="fill: rgb(185, 38, 87);"/></g><g id="__id4_sso1ybkmj"><path d="M103.174,53.209c5.172-7.179,10.953-16.523,10.7-25.95C110.868,16.1,102.643,24.4,98.6,28.766c-2.581-5.544-10.758-8.626-12.791-1.854C83.408,35.009,95.6,57.042,103.174,53.209Z" style="fill: rgb(231, 134, 161);"/></g><g id="__id5_sso1ybkmj"><path d="M480,51.861c3.788,2.128,5.533-1.661,7.18-4.245a42.111,42.111,0,0,0,5.5-13.4c.59-2.606,2.71-9.432-1.018-11.03-2.6-1.117-5.169.7-7,2.423-.373.35-.715.7-1.022,1.015-1.475,1.53-4.36,4.666-5.8,1.326-1.145-2.661-4.2-5.266-7.61-3.88-3.86,2.445-2.994,7.069-2.115,10.594a30.629,30.629,0,0,0,5.416,11.259A22.792,22.792,0,0,0,480,51.861Z" style="fill: rgb(231, 134, 161);"/></g><g id="__id6_sso1ybkmj"><path d="M299.093,36.766c1.242-3.6,2.59-8.327-.918-10.843-3.184-1.431-6.451,1.222-7.859,3.939-1.768,3.409-4.247.191-5.523-1.379-.265-.327-.562-.683-.888-1.043-1.608-1.774-3.917-3.637-6.585-2.505-3.817,1.62-2.485,8.609-2.192,11.276a40.307,40.307,0,0,0,3.919,13.72c1.33,2.649,2.624,6.531,6.557,4.37a26.406,26.406,0,0,0,6.973-6.043A36.132,36.132,0,0,0,299.093,36.766Z" style="fill: rgb(231, 134, 161);"/></g></g></svg>